<?xml version="1.0" encoding="UTF-8" standalone="no"?>
<svg
   xmlns:dc="http://purl.org/dc/elements/1.1/"
   xmlns:cc="http://creativecommons.org/ns#"
   xmlns:rdf="http://www.w3.org/1999/02/22-rdf-syntax-ns#"
   xmlns:svg="http://www.w3.org/2000/svg"
   xmlns="http://www.w3.org/2000/svg"
   xmlns:sodipodi="http://sodipodi.sourceforge.net/DTD/sodipodi-0.dtd"
   xmlns:inkscape="http://www.inkscape.org/namespaces/inkscape"
   version="1.1"
   x="0px"
   y="0px"
   viewBox="0 0 110.59834 98.781998"
   enable-background="new 0 0 100 100"
   xml:space="preserve"
   id="svg14"
   sodipodi:docname="Aquaponics.svg"
   width="110.59834"
   height="98.781998"
   inkscape:version="0.92.2 (5c3e80d, 2017-08-06)"><metadata
     id="metadata20"><rdf:RDF><cc:Work
         rdf:about=""><dc:format>image/svg+xml</dc:format><dc:type
           rdf:resource="http://purl.org/dc/dcmitype/StillImage" /></cc:Work></rdf:RDF></metadata><defs
     id="defs18" /><sodipodi:namedview
     pagecolor="#ffffff"
     bordercolor="#666666"
     borderopacity="1"
     objecttolerance="10"
     gridtolerance="10"
     guidetolerance="10"
     inkscape:pageopacity="0"
     inkscape:pageshadow="2"
     inkscape:window-width="1363"
     inkscape:window-height="926"
     id="namedview16"
     showgrid="false"
     inkscape:zoom="2.36"
     inkscape:cx="114.57627"
     inkscape:cy="30.385968"
     inkscape:window-x="592"
     inkscape:window-y="215"
     inkscape:window-maximized="0"
     inkscape:current-layer="svg14" /><g
     id="g12"
     transform="matrix(1.2288705,0,0,1.2288705,-6.1443525,-12.053499)"><path
       d="m 25,43.943 c 1.394,0 2.634,-0.497 4.072,-1.072 1.674,-0.669 3.572,-1.428 5.928,-1.428 2.356,0 4.254,0.759 5.928,1.428 1.438,0.575 2.678,1.072 4.072,1.072 1.394,0 2.634,-0.497 4.072,-1.072 1.674,-0.669 3.572,-1.428 5.928,-1.428 2.356,0 4.254,0.759 5.928,1.428 1.438,0.575 2.678,1.072 4.072,1.072 1.394,0 2.634,-0.497 4.072,-1.072 1.674,-0.669 3.572,-1.428 5.928,-1.428 2.356,0 4.254,0.759 5.928,1.428 1.008,0.403 1.919,0.757 2.853,0.939 l 3.72,-16.117 H 73.75 v -3.128 c 0.085,0.003 0.173,0.016 0.259,0.016 4.331,0 6.216,-4.438 6.607,-6.785 0.031,-0.181 -0.021,-0.366 -0.14,-0.506 -0.117,-0.141 -0.293,-0.221 -0.476,-0.221 -2.034,0 -3.555,0.427 -4.697,1.064 -0.503,-2.49 -2.241,-4.497 -2.334,-4.602 -0.117,-0.134 -0.288,-0.212 -0.466,-0.212 -0.001,0 -0.002,0 -0.002,0 -0.178,0 -0.349,0.076 -0.466,0.21 -1.346,1.514 -2.117,3.058 -2.314,4.606 -1.145,-0.644 -2.672,-1.078 -4.719,-1.078 -0.183,0 -0.359,0.081 -0.476,0.221 -0.12,0.14 -0.171,0.326 -0.14,0.506 0.392,2.346 2.276,6.784 6.607,6.785 h 0.001 c 0.084,0 0.172,-0.012 0.258,-0.016 v 3.141 h -17.5 v -3.279 c 0.454,0.1 0.898,0.154 1.323,0.154 3.623,0 5.21,-3.697 5.542,-5.652 0.032,-0.182 -0.039,-0.367 -0.159,-0.508 -0.117,-0.142 -0.312,-0.222 -0.497,-0.222 -3.828,0 -5.487,1.825 -6.21,3.393 v -4.751 c 0.786,-0.229 1.479,-0.615 2.047,-1.201 1.872,-1.929 1.8,-5.08 1.796,-5.212 -0.006,-0.185 -0.093,-0.356 -0.235,-0.47 -0.143,-0.115 -0.331,-0.162 -0.512,-0.125 -3.965,0.785 -5.596,2.874 -5.596,5.374 v 2.643 c -0.725,-1.569 -2.393,-3.4 -6.252,-3.4 -0.183,10e-4 -0.358,0.082 -0.476,0.222 -0.117,0.142 -0.168,0.327 -0.137,0.508 0.332,1.955 1.919,5.651 5.542,5.652 0.425,0 0.869,-0.054 1.323,-0.154 v 7.029 H 28.787 c 0.132,-4.352 0.593,-6.165 0.859,-6.521 0.081,-0.083 0.128,-0.183 0.181,-0.281 0.179,0.007 0.371,0.036 0.544,0.036 8.901,0 9.004,-9.389 9.004,-9.484 0,-0.166 -0.066,-0.325 -0.183,-0.442 -0.117,-0.117 -0.276,-0.183 -0.442,-0.183 -3.979,0 -6.925,1.062 -8.752,3.157 -1.452,1.665 -1.851,3.59 -1.938,4.873 C 27.8,17.153 26.5,12.806 20,12.806 c -0.183,0 -0.359,0.081 -0.476,0.221 -0.12,0.14 -0.171,0.326 -0.14,0.506 0.392,2.346 2.276,6.784 6.607,6.785 h 0.001 c 0.433,0 0.887,-0.055 1.349,-0.143 -0.432,0.903 -0.926,2.865 -1.057,7.518 H 15 l 3.284,14.233 c 0.954,0.271 1.826,0.618 2.644,0.945 1.438,0.576 2.678,1.072 4.072,1.072 z"
       id="path2"
       inkscape:connector-curvature="0" /><path
       d="m 55,43.943 c -3.75,0 -6.25,2.5 -10,2.5 -3.75,0 -6.25,-2.5 -10,-2.5 -3.75,0 -6.25,2.5 -10,2.5 -3.75,0 -6.25,-2.5 -10,-2.5 -3.75,0 -6.25,2.5 -10,2.5 v 7.5 c 3.75,0 6.25,-2.5 10,-2.5 3.75,0 6.25,2.5 10,2.5 3.75,0 6.25,-2.5 10,-2.5 3.75,0 6.25,2.5 10,2.5 3.75,0 6.25,-2.5 10,-2.5 3.75,0 6.25,2.5 10,2.5 3.75,0 6.25,-2.5 10,-2.5 3.75,0 6.25,2.5 10,2.5 3.75,0 6.25,-2.5 10,-2.5 v -7.5 c -3.75,0 -6.25,2.5 -10,2.5 -3.75,0 -6.25,-2.5 -10,-2.5 -3.75,0 -6.25,2.5 -10,2.5 -3.75,0 -6.25,-2.5 -10,-2.5 z"
       id="path4"
       inkscape:connector-curvature="0" /><path
       d="m 83.633,76.878 c -0.714,-1.043 -3.796,2.025 -5.061,2.025 -1.012,0 -3.965,-2.025 -8.098,-2.025 -6.074,0 -9.11,2.573 -9.11,4.05 0,1.476 3.036,4.048 9.11,4.048 4.133,0 7.086,-2.024 8.098,-2.024 1.265,0 4.347,3.069 5.061,2.024 0.549,-0.801 -1.013,-2.403 -1.013,-4.048 0,-1.645 1.562,-3.248 1.013,-4.05 z m -17.057,4.841 c -0.688,0 -1.25,-0.559 -1.25,-1.249 0,-0.69 0.562,-1.25 1.25,-1.25 0.692,0 1.25,0.56 1.25,1.25 0,0.69 -0.558,1.249 -1.25,1.249 z"
       id="path6"
       inkscape:connector-curvature="0" /><path
       d="m 57.496,61.878 c -0.714,-1.043 -3.795,2.025 -5.06,2.025 -1.013,0 -3.965,-2.025 -8.098,-2.025 -6.074,0 -9.111,2.573 -9.111,4.05 0,1.476 3.037,4.048 9.111,4.048 4.133,0 7.085,-2.024 8.098,-2.024 1.265,0 4.346,3.069 5.06,2.024 0.55,-0.801 -1.012,-2.403 -1.012,-4.048 0,-1.645 1.562,-3.248 1.012,-4.05 z m -17.057,4.841 c -0.688,0 -1.25,-0.559 -1.25,-1.249 0,-0.69 0.562,-1.25 1.25,-1.25 0.692,0 1.25,0.56 1.25,1.25 0,0.69 -0.557,1.249 -1.25,1.249 z"
       id="path8"
       inkscape:connector-curvature="0" /><path
       d="m 38.746,81.878 c -0.714,-1.043 -3.795,2.025 -5.06,2.025 -1.013,0 -3.965,-2.025 -8.098,-2.025 -6.074,0 -9.111,2.573 -9.111,4.05 0,1.476 3.037,4.048 9.111,4.048 4.133,0 7.085,-2.024 8.098,-2.024 1.265,0 4.346,3.069 5.06,2.024 0.55,-0.801 -1.012,-2.403 -1.012,-4.048 0,-1.645 1.562,-3.248 1.012,-4.05 z m -17.057,4.841 c -0.688,0 -1.25,-0.559 -1.25,-1.249 0,-0.69 0.562,-1.25 1.25,-1.25 0.692,0 1.25,0.56 1.25,1.25 0,0.69 -0.557,1.249 -1.25,1.249 z"
       id="path10"
       inkscape:connector-curvature="0" /></g></svg>