<?xml version="1.0" encoding="UTF-8" standalone="no"?>
<!-- Created with Inkscape (http://www.inkscape.org/) -->

<svg
   xmlns:dc="http://purl.org/dc/elements/1.1/"
   xmlns:cc="http://creativecommons.org/ns#"
   xmlns:rdf="http://www.w3.org/1999/02/22-rdf-syntax-ns#"
   xmlns:svg="http://www.w3.org/2000/svg"
   xmlns="http://www.w3.org/2000/svg"
   xmlns:sodipodi="http://sodipodi.sourceforge.net/DTD/sodipodi-0.dtd"
   xmlns:inkscape="http://www.inkscape.org/namespaces/inkscape"
   version="1.1"
   id="svg3825"
   xml:space="preserve"
   width="275.42374"
   height="147.11072"
   viewBox="0 0 275.42374 147.11072"
   sodipodi:docname="fish.svg"
   inkscape:version="0.92.2 (5c3e80d, 2017-08-06)"><metadata
     id="metadata3831"><rdf:RDF><cc:Work
         rdf:about=""><dc:format>image/svg+xml</dc:format><dc:type
           rdf:resource="http://purl.org/dc/dcmitype/StillImage" /><dc:title></dc:title></cc:Work></rdf:RDF></metadata><defs
     id="defs3829"><clipPath
       clipPathUnits="userSpaceOnUse"
       id="clipPath3843"><path
         d="M 0,500 H 500 V 0 H 0 Z"
         id="path3841"
         inkscape:connector-curvature="0" /></clipPath></defs><sodipodi:namedview
     pagecolor="#3d3780"
     bordercolor="#666666"
     borderopacity="1"
     objecttolerance="10"
     gridtolerance="10"
     guidetolerance="10"
     inkscape:pageopacity="0"
     inkscape:pageshadow="2"
     inkscape:window-width="1920"
     inkscape:window-height="1001"
     id="namedview3827"
     showgrid="false"
     inkscape:zoom="1.416"
     inkscape:cx="430.64478"
     inkscape:cy="33.107689"
     inkscape:window-x="-9"
     inkscape:window-y="-9"
     inkscape:window-maximized="1"
     inkscape:current-layer="g3833"
     inkscape:pagecheckerboard="true" /><g
     id="g3833"
     inkscape:groupmode="layer"
     inkscape:label="fish-2389212"
     transform="matrix(1.3333333,0,0,-1.3333333,-195.7634,406.99432)"><g
       id="g3837"
       transform="matrix(-1,0,0,1,500.00083,0)"><g
         id="g3839"
         clip-path="url(#clipPath3843)"><g
           id="g3845"
           transform="translate(324.4072,256.6733)"><path
             d="m 0,0 c 0,17.923 13.226,29.554 21.091,34.885 v -13.65 h -4.109 c -2.209,0 -4,-1.791 -4,-4 0,-2.209 1.791,-4 4,-4 h 4.109 V 4 H 10.546 c -2.209,0 -4,-1.791 -4,-4 0,-2.209 1.791,-4 4,-4 h 10.545 v -9.235 h -4.109 c -2.209,0 -4,-1.791 -4,-4 0,-2.209 1.791,-4 4,-4 h 4.109 V -34.142 C 13.086,-27.841 0,-15.213 0,0 m -91.534,-54.29 c -12.618,-0.713 -25.105,2.111 -37.388,8.423 18.359,32.261 7.542,68.7 3.362,80.093 4.622,2.236 9.609,4.045 14.98,5.229 29.595,6.524 63.399,-6.841 100.527,-39.735 -7.937,-11.102 -39.687,-51.638 -81.481,-54.01 m -77.679,42.589 c 3.378,6.883 15.307,28.655 36.534,41.971 3.943,-11.504 12.684,-44.156 -3.198,-72.18 -11.32,7.082 -22.451,17.161 -33.336,30.209 M 27.24,45.264 c -1.152,0.735 -2.601,0.829 -3.839,0.252 C 22.235,44.973 -2.757,33.03 -7.292,7.923 c -38.204,33.074 -73.53,46.314 -105.074,39.33 -44.489,-9.85 -64.4,-56.036 -65.225,-57.998 -0.574,-1.362 -0.349,-2.93 0.585,-4.077 25.724,-31.592 53.153,-47.578 81.598,-47.578 1.439,0 2.883,0.041 4.327,0.123 41.254,2.341 72.332,37.215 84.327,52.944 5.647,-21.228 28.672,-35.316 29.783,-35.985 0.633,-0.381 1.347,-0.572 2.062,-0.572 0.679,0 1.357,0.173 1.969,0.517 1.254,0.71 2.031,2.04 2.031,3.483 v 83.781 c 0,1.366 -0.698,2.638 -1.851,3.373"
             style="fill:#333333;fill-opacity:1;fill-rule:nonzero;stroke:none"
             id="path3847"
             inkscape:connector-curvature="0" /></g><g
           id="g3849"
           transform="translate(231.2329,277.0557)"><path
             d="M 0,0 C 0.619,-0.89 1.551,-2.23 2.041,-3.148 1.075,-3.711 -0.63,-4.395 -1.75,-4.844 c -3.871,-1.553 -7.873,-3.158 -8.59,-7.059 -0.765,-4.159 2.729,-7.377 5.812,-10.216 0.784,-0.722 1.965,-1.81 2.634,-2.586 -0.833,-0.792 -2.439,-1.885 -3.487,-2.599 -3.376,-2.299 -6.868,-4.675 -6.742,-8.538 0.146,-4.484 4.449,-6.985 8.246,-9.191 0.974,-0.567 2.356,-1.369 3.059,-1.918 -0.159,-0.728 -0.911,-1.472 -2.886,-3.014 -2.404,-1.877 -6.429,-5.018 -4.713,-10.227 0.554,-1.682 2.115,-2.744 3.793,-2.744 0.416,0 0.839,0.066 1.256,0.204 2.006,0.66 3.135,2.762 2.626,4.779 0.383,0.45 1.314,1.178 1.961,1.682 2.515,1.963 6.725,5.25 5.895,11.044 -0.479,3.337 -3.633,5.17 -6.972,7.111 -1.011,0.588 -2.663,1.548 -3.647,2.319 0.771,0.617 1.867,1.363 2.626,1.88 3.301,2.247 7.042,4.795 7.334,8.727 0.266,3.588 -2.698,6.317 -5.564,8.956 -0.797,0.734 -1.965,1.809 -2.711,2.655 0.912,0.453 2.174,0.959 3.048,1.31 3.812,1.529 7.752,3.11 8.858,6.794 C 11.13,-1.991 8.811,1.343 6.567,4.568 5.749,5.745 4.421,7.654 4.124,8.56 4.623,10.452 3.67,12.472 1.816,13.259 -0.217,14.122 -2.566,13.172 -3.428,11.138 -5.064,7.281 -2.374,3.413 0,0"
             style="fill:#333333;fill-opacity:1;fill-rule:nonzero;stroke:none"
             id="path3851"
             inkscape:connector-curvature="0" /></g><g
           id="g3853"
           transform="translate(252.2051,244.4883)"><path
             d="M 0,0 C 0.123,-3.812 3.597,-5.83 6.388,-7.453 6.704,-7.637 7.091,-7.861 7.452,-8.081 7.111,-8.385 6.686,-8.717 6.377,-8.958 c -1.682,-1.313 -5.181,-4.044 -3.712,-8.5 0.555,-1.683 2.118,-2.749 3.798,-2.749 0.415,0 0.838,0.065 1.253,0.202 1.77,0.584 2.859,2.285 2.74,4.064 0.259,0.22 0.59,0.478 0.843,0.676 1.843,1.438 5.271,4.115 4.591,8.869 -0.419,2.917 -2.993,4.413 -5.482,5.86 -0.313,0.182 -0.702,0.408 -1.089,0.642 0.156,0.107 0.305,0.208 0.442,0.302 2.543,1.731 5.426,3.692 5.674,7.029 0.228,3.096 -2.174,5.308 -4.293,7.259 -0.192,0.176 -0.417,0.384 -0.651,0.603 0.185,0.075 0.363,0.146 0.525,0.212 2.804,1.125 5.984,2.4 6.924,5.539 0.9,2.999 -0.978,5.7 -2.636,8.082 -0.45,0.649 -1.158,1.666 -1.455,2.261 0.26,1.758 -0.682,3.539 -2.395,4.266 C 9.419,36.521 7.072,35.574 6.209,33.54 4.801,30.224 6.983,27.086 8.736,24.564 8.951,24.256 9.21,23.884 9.452,23.52 8.964,23.307 8.438,23.096 8.037,22.935 5.158,21.78 1.895,20.471 1.271,17.084 0.614,13.514 3.447,10.906 5.723,8.811 5.991,8.563 6.314,8.266 6.622,7.972 6.159,7.634 5.646,7.285 5.26,7.022 2.743,5.309 -0.11,3.367 0,0"
             style="fill:#333333;fill-opacity:1;fill-rule:nonzero;stroke:none"
             id="path3855"
             inkscape:connector-curvature="0" /></g><g
           id="g3857"
           transform="translate(189.8809,264.9912)"><path
             d="m 0,0 c 0,2.97 -2.407,5.376 -5.377,5.376 -2.969,0 -5.376,-2.406 -5.376,-5.376 0,-2.969 2.407,-5.376 5.376,-5.376 C -2.407,-5.376 0,-2.969 0,0"
             style="fill:#333333;fill-opacity:1;fill-rule:nonzero;stroke:none"
             id="path3859"
             inkscape:connector-curvature="0" /></g></g></g><path
       style="fill:#000000;stroke-width:0.52966106"
       d="m 259.9189,195.53625 c -17.1097,2.78598 -33.47859,10.54214 -49.53703,23.4724 -6.29127,5.06573 -17.01803,15.71466 -22.49521,22.33202 -2.29064,2.76748 -4.43876,5.33704 -4.7736,5.71014 -0.47327,0.52735 -0.98379,-0.30887 -2.29345,-3.75667 -3.01347,-7.93322 -9.9866,-17.12146 -18.25478,-24.05363 -9.60707,-8.05472 -12.02598,-9.20667 -14.38302,-6.84963 l -1.35926,1.35926 v 42.8552 c 0,42.55342 0.008,42.86501 1.09776,44.25076 1.65549,2.10462 3.77397,1.85085 8.40988,-1.00737 7.31602,-4.51063 14.18358,-10.74725 18.69855,-16.98065 2.52909,-3.49167 5.97651,-10.75045 6.99446,-14.72728 0.44005,-1.71915 0.90756,-3.2332 1.03891,-3.36455 0.13134,-0.13135 1.98219,1.26177 4.11297,3.09581 5.95616,5.12668 17.36991,13.47429 24.75361,18.1039 13.45516,8.43646 29.23766,15.11773 42.41505,17.95573 7.60025,1.63686 25.34019,1.77299 32.30932,0.24793 23.14861,-5.06562 42.76488,-19.5927 58.10676,-43.03173 4.0467,-6.18249 8.63053,-15.10077 8.63053,-16.79155 0,-0.91289 -1.74598,-3.30395 -5.73784,-7.85778 -19.5361,-22.28636 -39.62999,-35.51677 -61.07926,-40.21638 -6.63246,-1.45321 -20.01133,-1.82762 -26.65435,-0.74593 z m 19.05408,7.19434 c 2.62182,0.32004 6.92536,1.12811 9.56341,1.79572 4.91198,1.24308 15.37963,5.31626 15.92342,6.19612 0.16663,0.26962 -0.64579,2.44249 -1.80538,4.82859 -2.82278,5.80848 -5.10423,12.77833 -6.56455,20.05474 -1.02324,5.09853 -1.20153,7.6307 -1.18695,16.85779 0.0226,14.29119 0.95424,19.84351 6.40021,38.14322 0.30206,1.01497 -7.40419,4.10652 -14.65008,5.87725 -4.39365,1.0737 -6.34162,1.22898 -15.36017,1.22443 -8.61668,-0.005 -11.20713,-0.19626 -15.63069,-1.15798 -18.27613,-3.97344 -39.40935,-14.92204 -58.78668,-30.45597 -3.78708,-3.03593 -7.91718,-6.45106 -9.178,-7.58918 l -2.29241,-2.06931 5.59375,-6.97262 c 6.67682,-8.32268 16.79129,-18.57015 24.27698,-24.59621 21.3662,-17.20001 42.88191,-24.67733 63.69714,-22.13659 z m 37.87076,15.37765 c 2.47616,1.77751 6.4779,4.90559 8.89275,6.95126 5.0274,4.25887 17.52309,17.08934 18.59616,19.0944 0.6611,1.23527 0.53964,1.67594 -1.51265,5.48845 -2.8343,5.26523 -6.98689,11.44758 -11.32274,16.85722 -4.57581,5.70902 -14.02084,14.72545 -19.03704,18.17317 l -4.09273,2.81299 -0.56255,-1.47962 c -0.30941,-0.81379 -1.1348,-3.68209 -1.83422,-6.37398 -4.86194,-18.71258 -4.76073,-38.17699 0.27617,-53.1145 1.70004,-5.04165 4.82871,-11.66144 5.50636,-11.65062 0.3236,0.005 2.61432,1.46372 5.09049,3.24123 z m -158.15705,7.66017 c 7.13308,6.08925 13.54299,15.01813 15.74191,21.92819 3.7697,11.8462 0.0488,25.44196 -9.83722,35.94387 -3.02027,3.20843 -8.87874,8.018 -9.76661,8.018 -0.39942,0 -0.58697,-2.20009 -0.58697,-6.8856 v -6.88559 h 2.85445 c 4.5957,0 6.89834,-2.99911 4.57267,-5.95571 -0.93099,-1.18357 -1.58947,-1.43297 -4.13482,-1.56606 l -3.02747,-0.15831 v -4.76695 -4.76695 l 6.19812,-0.14901 c 5.96456,-0.14339 6.239,-0.20097 7.28285,-1.528 1.42874,-1.81635 1.36911,-3.11853 -0.21537,-4.703 -1.23018,-1.23019 -1.62881,-1.30008 -7.41525,-1.30008 h -6.11518 v -4.76695 -4.76695 h 2.85445 c 4.5957,0 6.89834,-2.99911 4.57267,-5.95572 -0.93099,-1.18356 -1.58947,-1.43296 -4.13482,-1.56606 l -3.02747,-0.15831 -0.14872,-6.48834 c -0.0883,-3.8529 0.0559,-6.48835 0.35489,-6.48835 0.27697,0 2.06703,1.33465 3.97789,2.96588 z"
       id="path3993"
       inkscape:connector-curvature="0" /><path
       style="fill:#000000;stroke-width:0.70621473"
       d="m 122.49152,106.07313 c -0.64283,-0.71032 -1.16878,-1.75644 -1.16878,-2.32471 0,-0.56828 -1.42593,-2.43268 -3.16874,-4.143112 -5.48729,-5.385372 -5.99584,-11.031666 -1.32018,-14.657636 1.38119,-1.071108 3.19457,-2.48709 4.02975,-3.146627 l 1.51849,-1.199158 -1.76554,-1.242035 c -7.39655,-5.203393 -8.15595,-9.562089 -2.69766,-15.483632 1.5973,-1.732868 2.77827,-3.254381 2.62437,-3.381141 -0.1539,-0.126759 -1.97324,-1.137758 -4.04297,-2.246664 -6.5409,-3.504418 -7.30343,-7.841199 -2.61919,-14.896169 1.37399,-2.069385 2.49817,-4.417446 2.49817,-5.217913 0,-1.829949 3.02566,-4.922267 4.81616,-4.922267 0.74211,0 2.18664,0.658659 3.21007,1.463686 2.64862,2.083409 2.53988,6.046486 -0.30419,11.085903 -1.19074,2.10986 -2.06468,3.924656 -1.94209,4.032879 0.12258,0.108223 1.85995,1.018958 3.86083,2.023857 4.31765,2.168447 6.60216,4.820823 6.60216,7.665286 0,2.723437 -0.98697,4.541275 -4.38076,8.068677 l -2.80337,2.913732 3.23371,2.322271 c 3.94028,2.8297 5.36284,4.885568 5.36284,7.750318 0,3.354291 -1.75618,6.009891 -5.63773,8.525049 -1.94868,1.262702 -3.54306,2.468618 -3.54306,2.679815 0,0.211196 1.29574,1.704255 2.87942,3.317909 3.65122,3.720318 4.39488,7.424572 2.08007,10.361072 -1.84139,2.33593 -5.5022,2.66122 -7.32178,0.65061 z"
       id="path3995"
       inkscape:connector-curvature="0"
       transform="matrix(0.75000002,0,0,-0.75000002,146.82255,305.24575)" /><path
       style="fill:#000000;stroke-width:0.70621473"
       d="m 166.87359,120.66765 c -1.9813,-1.0756 -3.17797,-2.73457 -3.17797,-4.40571 0,-0.83396 -1.8797,-3.21539 -4.52776,-5.73632 -3.37786,-3.21569 -4.73397,-5.07621 -5.33974,-7.32586 -1.5845,-5.884394 0.48464,-9.377706 8.47509,-14.308391 2.70792,-1.670979 4.92349,-3.243781 4.92349,-3.495114 0,-0.251334 -2.22759,-2.082273 -4.9502,-4.068753 -5.52003,-4.027546 -7.7551,-7.068293 -7.75903,-10.55593 -0.004,-3.26553 0.89987,-4.744058 6.21724,-10.173654 2.55685,-2.610804 4.50738,-4.875993 4.33452,-5.033754 -0.17286,-0.157761 -2.84172,-1.447089 -5.93081,-2.865175 -6.51078,-2.988858 -7.98441,-4.146467 -9.33172,-7.330542 -1.34481,-3.178166 -0.43344,-6.195893 3.9825,-13.186807 1.95277,-3.091452 3.55049,-6.452369 3.55049,-7.468705 0,-2.165391 2.64064,-4.918949 4.71723,-4.918949 0.79652,0 2.28557,0.658659 3.309,1.463687 1.51519,1.191849 1.86078,2.050896 1.86078,4.625466 0,3.475659 -0.93196,5.627709 -5.10885,11.797196 -1.53234,2.263339 -2.65816,4.243072 -2.50182,4.399406 0.15633,0.156334 2.62449,1.249286 5.4848,2.428781 6.60755,2.724735 9.56621,4.990705 10.59787,8.116652 1.24153,3.761884 -0.13917,6.824552 -5.73,12.710237 -2.67336,2.814352 -4.86065,5.254278 -4.86065,5.422058 0,0.16778 2.30403,1.989175 5.12006,4.047545 6.46789,4.727685 7.93567,6.65714 7.94086,10.4386 0.006,3.991099 -1.73086,6.168079 -8.50519,10.663553 -3.08828,2.049392 -5.70278,4.116523 -5.81001,4.593633 -0.10723,0.47712 1.75813,2.58666 4.14525,4.68789 4.89022,4.30455 6.56171,7.42371 5.8918,10.99464 -0.7085,3.77663 -4.20496,6.01101 -7.01723,4.48432 z"
       id="path3997"
       inkscape:connector-curvature="0"
       transform="matrix(0.75000002,0,0,-0.75000002,146.82255,305.24575)" /><path
       style="fill:#000000;stroke-width:0.70621473"
       d="m 222.58554,60.0623 c -2.20762,-0.891976 -4.51138,-4.165829 -4.51138,-6.411062 0,-2.537336 2.99101,-6.084037 5.61726,-6.660857 2.37859,-0.522427 5.96866,1.067 7.07366,3.13172 0.9474,1.770233 0.9293,5.403977 -0.0359,7.20748 -0.41968,0.784183 -1.83956,1.875579 -3.15528,2.425323 -2.70192,1.128935 -2.92157,1.142471 -4.98835,0.307396 z"
       id="path3999"
       inkscape:connector-curvature="0"
       transform="matrix(0.75000002,0,0,-0.75000002,146.82255,305.24575)" /></g></svg>