<?xml version="1.0" encoding="UTF-8" standalone="no"?>
<!-- Created with Inkscape (http://www.inkscape.org/) -->

<svg
   xmlns:dc="http://purl.org/dc/elements/1.1/"
   xmlns:cc="http://creativecommons.org/ns#"
   xmlns:rdf="http://www.w3.org/1999/02/22-rdf-syntax-ns#"
   xmlns:svg="http://www.w3.org/2000/svg"
   xmlns="http://www.w3.org/2000/svg"
   xmlns:sodipodi="http://sodipodi.sourceforge.net/DTD/sodipodi-0.dtd"
   xmlns:inkscape="http://www.inkscape.org/namespaces/inkscape"
   width="23.8125mm"
   height="26.136202mm"
   version="1.1"
   viewBox="0 0 23.8125 26.136202"
   id="svg62"
   sodipodi:docname="Simpleponics.svg"
   inkscape:version="0.92.2 (5c3e80d, 2017-08-06)">
  <sodipodi:namedview
     pagecolor="#ffffff"
     bordercolor="#666666"
     borderopacity="1"
     objecttolerance="10"
     gridtolerance="10"
     guidetolerance="10"
     inkscape:pageopacity="0"
     inkscape:pageshadow="2"
     inkscape:window-width="1920"
     inkscape:window-height="1001"
     id="namedview64"
     showgrid="false"
     inkscape:zoom="4.3840249"
     inkscape:cx="24.525654"
     inkscape:cy="26.915034"
     inkscape:window-x="2391"
     inkscape:window-y="-9"
     inkscape:window-maximized="1"
     inkscape:current-layer="svg62" />
  <defs
     id="defs4">
    <style
       type="text/css"
       id="style2">.fil0 {fill:black}</style>
  </defs>
  <metadata
     id="metadata6">
    <rdf:RDF>
      <cc:Work
         rdf:about="">
        <dc:format>image/svg+xml</dc:format>
        <dc:type
           rdf:resource="http://purl.org/dc/dcmitype/StillImage" />
        <dc:title />
      </cc:Work>
    </rdf:RDF>
  </metadata>
  <g
     transform="matrix(1.8350689,0,0,1.8350689,-159.60315,-138.36813)"
     id="g60">
    <rect
       transform="rotate(139.88)"
       x="-54.686001"
       y="-154.38"
       width="3.003"
       height="0.76147997"
       display="none"
       id="rect8"
       style="display:none;stroke-width:0.26459" />
    <rect
       transform="rotate(-40.12)"
       x="51.682999"
       y="154.48"
       width="3.0033"
       height="2.6436999"
       display="none"
       id="rect10"
       style="display:none;stroke-width:0.26459" />
    <g
       transform="matrix(0.26458,0,0,0.26458,129.66,69.873)"
       display="none"
       id="g14"
       style="display:none">
      <path
         d="m 48.338,54.315 -0.854,-0.293 c 10e-4,-0.005 0.346,-1.209 -0.94,-3.518 -1.285,-2.306 -4.07,-2.365 -4.098,-2.366 l 0.009,-0.9 c 0.136,10e-4 3.339,0.069 4.876,2.827 1.482,2.661 1.06,4.095 1.007,4.25 z"
         display="inline"
         id="path12"
         inkscape:connector-curvature="0"
         style="display:inline" />
    </g>
    <g
       transform="matrix(0.26458,0,0,0.26458,129.66,69.873)"
       display="none"
       id="g18"
       style="display:none">
      <polygon
         points="40.444,61.454 32.142,60.148 31.897,61.334 42.571,62.923 42.438,63.815 30.822,62.086 31.432,59.125 40.583,60.56 "
         display="inline"
         id="polygon16"
         style="display:inline" />
    </g>
    <g
       transform="matrix(0.26458,0,0,0.26458,129.66,69.873)"
       display="none"
       id="g22"
       style="display:none">
      <path
         d="m 30.539,62.431 c -0.162,0.037 -0.327,0.046 -0.489,0.025 -0.959,-0.121 -1.589,-1.176 -1.435,-2.404 0.15,-1.196 1.051,-2.089 1.986,-1.973 0.959,0.12 1.589,1.176 1.435,2.404 -0.125,0.989 -0.726,1.772 -1.497,1.948 z m -0.226,-3.448 c -0.335,0.077 -0.718,0.508 -0.803,1.182 -0.088,0.701 0.212,1.341 0.653,1.397 0.385,0.048 0.879,-0.399 0.978,-1.192 0.09,-0.7 -0.21,-1.341 -0.653,-1.396 -0.058,-0.008 -0.116,-0.005 -0.175,0.009 z"
         display="inline"
         id="path20"
         inkscape:connector-curvature="0"
         style="display:inline" />
    </g>
    <g
       transform="matrix(0.26458,0,0,0.26458,129.66,69.873)"
       display="none"
       id="g32"
       style="display:none">
      <g
         display="inline"
         stroke-miterlimit="10"
         id="g30"
         style="display:inline;fill:none;stroke:#000000;stroke-width:0.75;stroke-linecap:round;stroke-miterlimit:10">
        <path
           d="m 27.497,59.407 c 0,0 -0.171,0.041 -0.477,0.134"
           id="path24"
           inkscape:connector-curvature="0" />
        <path
           d="m 26.076,59.859 c -2.101,0.77 -6.138,2.635 -9.386,6.448"
           id="path26"
           inkscape:connector-curvature="0"
           style="stroke-dasharray:1.0006, 1.0006" />
        <path
           d="m 16.364,66.7 c -0.104,0.129 -0.208,0.261 -0.311,0.394"
           id="path28"
           inkscape:connector-curvature="0" />
      </g>
    </g>
    <g
       transform="matrix(0.26458,0,0,0.26458,129.66,69.873)"
       display="none"
       id="g42"
       style="display:none">
      <g
         display="inline"
         stroke-miterlimit="10"
         id="g40"
         style="display:inline;fill:none;stroke:#000000;stroke-width:0.75;stroke-linecap:round;stroke-miterlimit:10">
        <path
           d="m 28.154,61.034 c 0,0 -0.171,0.041 -0.477,0.136"
           id="path34"
           inkscape:connector-curvature="0" />
        <path
           d="m 26.705,61.506 c -1.879,0.712 -5.243,2.331 -7.995,5.512"
           id="path36"
           inkscape:connector-curvature="0"
           style="stroke-dasharray:1.0322, 1.0322" />
        <path
           d="m 18.372,67.42 c -0.105,0.129 -0.209,0.26 -0.312,0.394"
           id="path38"
           inkscape:connector-curvature="0" />
      </g>
    </g>
    <g
       transform="matrix(0.26458,0,0,0.26458,129.66,69.873)"
       display="none"
       id="g52"
       style="display:none">
      <g
         display="inline"
         stroke-miterlimit="10"
         id="g50"
         style="display:inline;fill:none;stroke:#000000;stroke-width:0.75;stroke-linecap:round;stroke-miterlimit:10">
        <path
           d="m 28.39,63.034 c 0,0 -0.172,0.042 -0.478,0.136"
           id="path44"
           inkscape:connector-curvature="0" />
        <path
           d="m 26.853,63.54 c -0.918,0.353 -2.167,0.915 -3.519,1.756"
           id="path46"
           inkscape:connector-curvature="0"
           style="stroke-dasharray:1.1253, 1.1253" />
        <path
           d="m 22.856,65.603 c -0.139,0.092 -0.278,0.186 -0.417,0.284"
           id="path48"
           inkscape:connector-curvature="0" />
      </g>
    </g>
    <g
       id="g58">
      <path
         d="m 97.966,84.062 c -0.39688,-1.1906 -1.3229,-2.1696 -2.5135,-2.6194 v 4.3921 c 0,0.71438 -0.58208,1.2965 -1.2965,1.2965 h -4.9477 c -0.68792,0 -1.27,-0.58208 -1.27,-1.2965 v -0.42333 c -0.23812,0.42333 -0.37042,0.87312 -0.37042,1.3494 0,1.5875 1.3494,2.884 3.0162,2.884 h 6.35 c 1.6669,0 3.0162,-1.2965 3.0162,-2.884 0,-1.2171 -0.82021,-2.2754 -1.9844,-2.6988 z"
         id="path54"
         inkscape:connector-curvature="0"
         style="stroke-width:0.26458001" />
      <path
         transform="scale(0.26458)"
         d="m 332.91,284.99 c -1.2917,-0.0109 -2.6877,0.0249 -4.1855,0.0918 4.5538,5.4769 -0.0302,14.178 13.719,12.555 1.3553,1.1101 2.4119,4.4456 2.8906,7.127 h 2.2207 c 0.48099,-2.1267 1.4135,-4.0436 2.3008,-5.0898 10.082,3.5481 9.1802,-6.8877 12.369,-13.584 -6.789,3.3389 -18.607,-0.30632 -14.559,12.221 2.8566,-4.929 5.945,-7.1238 12.617,-10.375 -6.5213,3.649 -11.63,8.8636 -13.721,15.088 -0.65511,-2.7306 -1.5305,-4.4362 -2.5332,-6.25 1.8625,-9.3795 -2.0773,-11.707 -11.119,-11.783 z m 14.629,20.928 c 0.69566,0.26672 1.1893,0.67751 1.6406,2.1699 0.31484,1.0387 0.70225,1.5621 1.5371,1.707 0.84752,0.14698 1.8607,0.20937 2.8535,0.26757 -1.0074,0.12129 -1.8797,0.19021 -2.8535,0.14844 -1.184,-0.0511 -1.5124,-0.24492 -2.2754,-1.9062 -0.34091,-0.7413 -0.77314,-1.4141 -1.5996,-1.4141 -0.079,1.4738 -0.23723,2.4687 1.0488,3.4824 -1.6283,-0.7448 -1.858,-1.4249 -1.8144,-3.4394 -0.8338,0.19154 -1.0549,0.76793 -1.2891,1.5723 -0.43514,1.4896 -0.75986,1.8219 -1.7832,2.2266 -1.1912,0.47072 -1.1396,0.99852 -0.69531,1.6289 0.74623,1.0595 1.0448,0.83022 2.2988,0.79297 -1.1854,0.35615 -1.7927,0.50881 -2.6562,-0.43164 -0.74396,-0.80885 -1.014,-1.6296 0.56054,-2.4648 0.78365,-0.41568 1.1964,-0.78687 1.459,-1.9844 0.24038,-1.0976 0.42061,-1.9024 1.4863,-2.3535 h -10.082 l 0.0273,0.0371 -0.0293,-0.0371 -0.11328,18.6 c -0.007,1.1 0.90039,1.8984 1.9004,1.8984 h 18.6 c 1.1,0 1.9004,-0.89844 1.9004,-1.8984 v -18.602 z"
         id="path56"
         inkscape:connector-curvature="0" />
    </g>
  </g>
</svg>
